<?xml version="1.0" standalone="no"?>
<!DOCTYPE svg PUBLIC "-//W3C//DTD SVG 20010904//EN"
 "http://www.w3.org/TR/2001/REC-SVG-20010904/DTD/svg10.dtd">
<svg version="1.0" xmlns="http://www.w3.org/2000/svg"
 width="607.000000pt" height="710.000000pt" viewBox="0 0 607.000000 710.000000"
 preserveAspectRatio="xMidYMid meet">

<g transform="translate(0.000000,710.000000) scale(0.100000,-0.100000)"
fill="#000000" stroke="none">
<path d="M2560 6780 c-333 -18 -732 -75 -980 -142 -41 -11 -100 -26 -130 -34
-177 -47 -411 -138 -603 -236 -164 -84 -197 -115 -197 -186 0 -55 18 -93 60
-128 l30 -26 -90 -85 c-124 -117 -229 -249 -313 -396 -23 -38 -25 -48 -13 -53
8 -3 27 1 43 9 44 23 125 37 255 44 l119 6 -4 -54 c-3 -30 -13 -130 -22 -222
-17 -171 -15 -197 18 -184 8 3 17 18 20 34 15 77 142 159 517 337 63 29 125
64 138 75 36 35 33 86 -11 184 -25 56 -28 70 -16 77 21 14 226 69 336 91 225
45 495 75 903 99 340 19 458 18 795 -10 61 -5 139 -12 175 -15 367 -29 813
-108 1010 -179 84 -30 89 -40 61 -107 -12 -30 -25 -73 -28 -97 -5 -38 -2 -47
23 -73 17 -18 116 -74 235 -134 290 -147 389 -217 424 -303 9 -19 20 -32 27
-29 16 5 13 106 -8 301 -8 76 -13 145 -10 153 12 29 327 -6 383 -42 12 -8 25
-15 28 -15 51 0 -207 361 -334 468 -91 77 -87 70 -58 100 65 69 81 129 53 197
-16 38 -82 80 -278 179 -435 218 -914 340 -1558 395 -123 10 -799 11 -1000 1z
m1135 -44 c517 -56 916 -159 1330 -344 133 -60 307 -159 332 -190 41 -49 23
-111 -55 -185 -60 -56 -114 -132 -177 -249 -60 -110 -89 -133 -132 -105 -52
33 -182 84 -443 172 -159 54 -486 115 -780 145 -58 6 -141 15 -185 20 -534 64
-1278 36 -1855 -69 -233 -42 -616 -173 -659 -225 -35 -42 -73 -11 -141 113
-67 123 -103 173 -168 235 -124 117 -111 170 63 261 292 152 578 251 970 334
235 50 422 76 700 96 249 19 993 13 1200 -9z m-2876 -808 c22 -29 61 -93 88
-142 63 -117 76 -126 183 -129 47 -1 110 2 140 6 49 7 60 5 90 -15 36 -24 50
-63 33 -93 -5 -9 -94 -56 -199 -106 -187 -89 -326 -173 -373 -223 -14 -14 -29
-26 -34 -26 -11 0 -2 125 19 255 18 114 18 112 -6 125 -22 12 -253 -2 -333
-20 -20 -4 -39 -5 -41 -1 -7 10 118 178 196 265 76 84 161 156 184 156 7 0 31
-24 53 -52z m4599 -85 c59 -60 139 -153 178 -208 99 -141 95 -129 38 -121
-124 20 -329 33 -340 22 -8 -8 -7 -53 7 -171 27 -241 35 -226 -73 -144 -64 48
-160 103 -308 177 l-215 108 -3 42 c-3 38 0 44 30 62 29 19 42 20 108 15 125
-11 193 -10 225 6 22 10 44 40 81 111 62 115 129 208 150 208 8 0 63 -48 122
-107z m-4062 -123 c12 -25 20 -46 19 -48 -2 -2 -18 4 -36 14 -27 14 -50 16
-126 11 -51 -4 -93 -4 -93 -2 0 7 81 47 125 61 67 22 87 15 111 -36z m3442 -6
c59 -17 132 -50 132 -60 0 -3 -40 -2 -90 2 -80 6 -93 4 -125 -14 -19 -12 -35
-17 -35 -12 0 20 40 100 51 100 6 0 36 -7 67 -16z"/>
<path d="M2515 6655 l-27 -36 -63 6 c-171 19 -319 -103 -301 -247 19 -140 119
-236 248 -237 58 -1 87 10 141 51 56 44 57 45 57 104 0 30 9 71 21 99 12 26
17 51 12 56 -4 4 -26 2 -48 -6 -22 -8 -59 -14 -82 -15 -85 0 -130 -43 -49 -47
21 0 40 -4 44 -8 4 -4 7 -35 7 -69 0 -81 -12 -96 -78 -96 -45 0 -54 4 -87 39
-42 44 -60 100 -60 185 0 100 25 123 141 133 62 5 69 4 92 -19 13 -13 26 -30
29 -38 2 -8 11 -11 20 -8 10 4 20 30 28 75 20 111 3 140 -45 78z"/>
<path d="M2675 6649 c-38 -5 -72 -15 -76 -21 -12 -18 10 -38 41 -38 32 0 34
-6 84 -185 53 -193 63 -220 79 -223 11 -2 22 11 35 40 11 24 41 94 68 155 27
62 54 113 59 113 11 0 128 -234 143 -285 17 -58 37 -42 77 62 97 248 111 276
155 307 30 20 40 34 38 50 -3 20 -7 21 -93 18 -49 -2 -94 -8 -99 -13 -5 -5 4
-20 22 -36 25 -21 32 -36 32 -63 0 -36 -52 -160 -68 -160 -14 0 -35 28 -81
106 -32 55 -41 80 -41 116 0 26 -5 50 -12 54 -14 9 -118 8 -147 -1 -28 -8 -27
-23 3 -34 36 -14 37 -34 4 -97 -55 -106 -64 -107 -98 -10 -25 74 -25 93 0 106
39 21 17 52 -33 49 -12 -1 -53 -6 -92 -10z"/>
<path d="M3463 6618 c-15 -18 -5 -34 30 -47 l27 -11 -56 -111 c-78 -157 -96
-183 -159 -229 -46 -34 -54 -44 -44 -56 17 -21 157 -20 166 2 3 8 1 20 -5 26
-10 10 -4 42 18 91 15 30 39 33 172 21 72 -7 78 -12 93 -91 5 -27 2 -37 -19
-57 -33 -30 -21 -36 74 -36 76 0 90 8 60 35 -11 10 -20 26 -20 36 0 19 -20 76
-95 263 -44 108 -44 109 -23 125 34 28 2 42 -109 48 -78 5 -101 3 -110 -9z
m124 -75 c26 -34 72 -130 75 -159 3 -26 0 -29 -27 -31 -51 -3 -155 9 -155 18
0 12 82 189 88 189 3 0 11 -8 19 -17z"/>
<path d="M3885 6580 c-3 -5 10 -16 30 -24 28 -12 35 -21 36 -43 4 -156 -20
-300 -58 -351 -14 -18 -23 -39 -20 -46 6 -15 149 -42 167 -31 9 5 4 14 -16 30
l-28 22 18 89 c9 49 19 90 21 92 11 11 68 -34 85 -68 11 -22 25 -40 31 -40 6
0 8 -7 5 -16 -5 -14 11 -53 47 -109 6 -11 26 -43 44 -72 35 -57 74 -83 124
-83 l31 0 -35 40 c-43 47 -69 96 -91 171 -8 31 -34 82 -56 115 -22 32 -40 62
-40 65 0 4 14 12 30 19 40 16 90 75 90 104 0 29 -53 104 -83 116 -21 9 -231
30 -296 30 -16 0 -33 -4 -36 -10z m284 -68 c39 -29 41 -85 5 -123 -29 -30 -78
-45 -117 -35 -22 5 -23 9 -19 73 3 37 9 79 14 92 8 21 13 23 50 18 23 -3 53
-14 67 -25z"/>
<path d="M1745 6551 c-106 -19 -195 -117 -195 -216 0 -80 21 -127 84 -192 50
-51 71 -64 120 -78 66 -19 117 -15 174 14 50 26 106 88 121 133 17 50 7 148
-18 202 -37 75 -79 109 -163 132 -57 15 -62 15 -123 5z m94 -56 c49 -25 86
-98 103 -204 18 -110 11 -150 -31 -181 -40 -28 -97 -26 -143 5 -32 21 -41 37
-64 108 -14 45 -29 114 -31 154 -5 70 -5 73 25 102 24 25 39 31 72 31 22 0 54
-7 69 -15z"/>
<path d="M4406 6454 c-12 -87 -12 -86 39 -63 29 13 53 17 71 13 25 -7 26 -9
20 -59 -8 -71 -53 -244 -67 -262 -7 -8 -27 -20 -46 -28 -18 -8 -33 -18 -33
-22 0 -10 156 -63 183 -63 20 0 22 22 5 50 -20 32 49 340 76 340 19 0 95 -62
102 -82 3 -10 8 -18 12 -18 12 0 44 102 35 110 -8 8 -368 130 -382 130 -5 0
-11 -21 -15 -46z"/>
<path d="M1315 6452 c-74 -22 -90 -31 -90 -47 0 -13 8 -21 22 -23 13 -2 32
-16 43 -32 26 -37 53 -112 43 -120 -5 -4 -42 -16 -83 -28 -84 -25 -79 -28
-112 58 -21 53 -17 72 23 101 27 19 29 23 16 36 -14 15 -18 13 -224 -86 -59
-28 -39 -55 41 -55 56 -1 52 5 101 -126 39 -100 46 -118 64 -163 10 -24 8 -32
-9 -54 -35 -45 -20 -86 23 -65 12 6 57 23 100 38 43 15 76 32 74 38 -2 6 -23
16 -47 23 -24 7 -48 17 -54 23 -13 13 -46 100 -46 121 0 18 150 75 174 66 15
-6 56 -114 56 -149 0 -13 -5 -29 -12 -36 -9 -9 -9 -15 0 -24 16 -16 156 21
159 42 2 8 -12 24 -29 35 -28 17 -40 40 -85 160 -70 185 -73 206 -39 240 29
29 28 55 -1 54 -10 0 -58 -12 -108 -27z"/>
<path d="M4884 6306 c-58 -26 -99 -125 -72 -175 7 -13 46 -45 87 -70 84 -53
100 -77 70 -115 -28 -35 -50 -39 -114 -21 -66 20 -85 44 -96 122 -4 30 -10 58
-14 61 -12 12 -34 -25 -49 -83 -25 -92 -26 -89 21 -95 23 -4 50 -14 61 -23 27
-25 87 -47 126 -47 43 0 118 35 135 62 34 55 1 152 -73 213 -57 46 -73 88 -46
115 41 41 148 9 169 -51 6 -17 9 -35 6 -39 -6 -10 5 -40 14 -40 9 0 54 106 50
117 -2 4 -9 7 -17 5 -7 -2 -27 9 -45 24 -63 53 -146 69 -213 40z"/>
<path d="M1679 5512 c-15 -6 -90 -89 -224 -246 -27 -32 -63 -72 -78 -90 -15
-17 -53 -62 -85 -101 -31 -38 -83 -99 -114 -134 -32 -35 -58 -68 -58 -72 0 -4
17 -11 38 -14 144 -24 241 -65 349 -149 158 -124 233 -289 233 -516 0 -157
-26 -277 -104 -484 -61 -160 -137 -295 -237 -423 -50 -64 -58 -83 -36 -83 8 0
13 -14 13 -40 0 -27 -4 -40 -13 -40 -7 0 -13 7 -13 15 0 8 -9 19 -19 24 -16 9
-30 0 -93 -62 -89 -88 -229 -194 -321 -243 -37 -19 -67 -37 -67 -39 0 -2 8
-12 18 -22 10 -10 54 -61 97 -113 44 -52 89 -106 101 -120 12 -14 42 -48 66
-77 23 -28 73 -87 110 -130 36 -43 97 -114 135 -159 37 -45 97 -115 133 -157
35 -43 69 -77 76 -77 6 0 44 27 85 59 41 33 90 69 110 80 l36 20 93 -62 c120
-80 331 -217 335 -217 2 0 50 -28 107 -61 57 -34 141 -81 187 -106 144 -76
213 -131 252 -202 11 -20 35 -63 54 -96 19 -33 37 -72 40 -88 l7 -27 113 0
113 0 18 53 c44 135 152 268 273 334 95 51 293 167 384 224 43 27 80 49 82 49
7 0 206 131 263 173 38 27 60 37 75 33 12 -3 63 -37 114 -76 51 -38 99 -70
107 -70 7 0 46 38 86 85 58 68 71 90 67 110 -5 29 11 45 24 24 10 -16 1 -24
111 101 40 47 156 178 256 292 100 114 182 212 182 217 0 6 -24 22 -52 37 -29
14 -75 43 -103 64 -27 20 -59 43 -71 51 -38 25 -124 103 -190 170 -108 110
-214 261 -278 394 -22 44 -49 100 -62 125 -70 141 -119 357 -118 520 1 98 5
127 29 199 75 223 258 378 495 422 86 15 92 17 88 29 -3 9 -239 294 -437 527
-117 138 -121 140 -245 130 -73 -7 -254 -61 -329 -98 -76 -38 -211 -122 -271
-167 -88 -67 -201 -107 -410 -143 -75 -13 -84 -18 -139 -79 -25 -27 -50 -50
-55 -50 -6 0 -26 21 -44 46 -42 59 -62 69 -225 110 -175 44 -240 73 -343 149
-225 167 -441 261 -620 271 -47 2 -92 1 -101 -4z m213 -108 c132 -33 329 -136
458 -239 36 -29 79 -59 96 -68 45 -23 235 -83 327 -102 69 -15 81 -21 112 -58
81 -94 83 -104 86 -298 1 -96 -2 -174 -7 -174 -14 -1 -75 76 -68 87 3 5 17 13
30 18 31 12 31 30 -1 30 -24 0 -65 -31 -65 -49 0 -5 -13 -14 -29 -20 -15 -7
-33 -23 -39 -36 -6 -13 -34 -36 -62 -50 -27 -14 -50 -30 -50 -35 0 -24 -18 -6
-40 39 -32 70 -24 85 44 77 53 -7 53 -7 49 18 -4 21 -11 26 -33 26 -30 0 -56
23 -45 40 10 16 40 12 60 -10 36 -40 107 -15 121 43 8 36 -21 38 -38 3 -15
-35 -37 -40 -63 -16 -12 12 -35 24 -51 29 -15 4 -24 10 -19 13 6 3 30 -1 54
-9 41 -14 46 -14 58 2 15 22 3 48 -32 71 -23 15 -26 14 -57 -6 l-33 -22 34 31
34 30 -25 38 c-14 21 -43 47 -64 58 -22 11 -63 35 -92 54 -35 23 -71 37 -108
42 -54 7 -114 -4 -114 -21 0 -4 -29 -37 -65 -74 -36 -36 -65 -71 -65 -77 0 -6
9 -13 20 -16 21 -6 27 -28 10 -38 -19 -12 -61 -85 -55 -96 4 -5 11 -7 16 -4
15 10 10 -18 -16 -85 -13 -34 -28 -78 -31 -97 l-7 -35 31 16 c16 8 32 22 35
31 7 17 27 21 27 5 0 -5 -18 -20 -40 -32 -26 -15 -43 -32 -46 -48 -17 -77 -73
-184 -102 -195 -8 -3 -26 2 -40 11 -24 16 -25 17 -19 128 4 94 13 139 57 296
52 184 52 185 42 267 -14 118 -41 151 -156 187 -45 14 -58 15 -92 4 -36 -12
-40 -17 -62 -82 -21 -62 -21 -70 -8 -85 9 -10 19 -33 22 -52 9 -46 55 -139 70
-139 12 0 28 -34 38 -82 14 -64 45 -6 53 97 3 44 -1 101 -11 152 -8 46 -13 89
-10 97 15 38 64 25 89 -24 34 -66 15 -202 -62 -430 -61 -183 -56 -350 14 -452
17 -25 23 -45 19 -61 -3 -13 2 -36 11 -52 18 -35 20 -110 3 -130 -8 -10 -31
-15 -64 -15 -48 0 -76 -12 -76 -32 0 -4 9 -8 20 -8 27 0 25 -6 -10 -42 -35
-35 -48 -74 -31 -99 6 -10 11 -31 11 -46 0 -14 6 -34 14 -42 13 -15 6 -16 -80
-13 -52 2 -94 8 -94 13 0 5 12 38 26 72 39 93 78 219 104 336 19 90 22 124 17
250 -6 189 -32 280 -116 405 -83 123 -208 221 -347 271 -36 13 -69 26 -72 29
-3 3 22 36 54 73 161 185 282 324 328 376 l51 58 55 -7 c30 -3 81 -12 112 -20z
m2455 -63 c21 -26 83 -101 138 -166 217 -256 245 -290 242 -299 -2 -5 -31 -19
-64 -31 -128 -46 -258 -142 -342 -252 -40 -52 -95 -173 -109 -238 -6 -28 -14
-85 -18 -127 -4 -43 -8 -78 -9 -78 0 0 -19 9 -41 19 -30 15 -57 18 -120 17
-95 -3 -146 -24 -277 -110 -47 -31 -89 -56 -93 -56 -12 0 -164 159 -164 171 0
5 7 26 17 47 9 20 15 43 14 50 -1 6 5 12 13 12 21 0 259 110 272 126 6 8 21
14 33 14 11 0 30 9 41 20 11 11 24 20 30 20 5 0 28 16 49 36 103 92 151 241
111 339 -4 11 -13 39 -20 62 -8 25 -20 43 -31 46 -11 3 -19 14 -19 26 0 49
-134 97 -215 77 -22 -6 -25 -9 -15 -21 15 -18 7 -19 -19 -4 -23 15 -75 3 -68
-15 4 -10 -3 -14 -26 -13 -19 0 -50 -11 -75 -27 -31 -19 -61 -29 -100 -32 -31
-2 -71 -9 -89 -15 -46 -15 -133 -115 -133 -154 0 -2 12 -6 28 -8 25 -4 25 -4
-5 -6 -18 0 -42 -10 -53 -21 -24 -24 -27 -60 -4 -60 11 0 4 -9 -17 -23 -23
-15 -34 -31 -35 -47 0 -14 -12 -51 -27 -82 -15 -31 -27 -67 -27 -80 0 -52 -14
-97 -36 -123 -13 -16 -27 -25 -32 -21 -4 4 -7 112 -7 239 l0 232 32 57 c68
117 80 125 235 153 144 26 262 70 335 123 78 56 191 132 198 132 3 0 22 11 43
24 87 55 275 112 379 115 39 1 45 -3 80 -48z m-555 -473 c30 -9 41 -8 55 3 16
13 17 12 5 -3 -11 -14 -8 -22 23 -55 19 -21 35 -42 35 -47 0 -5 -9 -29 -21
-52 -21 -45 -84 -92 -150 -113 -72 -23 -204 -81 -277 -123 -98 -56 -160 -117
-210 -208 -34 -62 -40 -81 -36 -111 7 -43 0 -47 -94 -56 -44 -4 -66 -2 -71 6
-4 6 -6 46 -5 88 2 72 3 78 30 97 16 11 31 24 32 28 7 15 21 8 27 -12 3 -11
13 -20 21 -20 18 0 18 0 -2 61 -14 42 -15 59 -5 102 17 76 44 117 79 117 29 0
94 38 145 83 16 14 61 35 100 47 128 39 167 68 167 126 0 23 6 41 17 49 18 14
76 11 135 -7z m-248 -6 c10 -16 -104 -92 -139 -92 -36 0 -7 36 54 68 68 34 77
37 85 24z m436 -12 c-24 -15 -37 -11 -16 5 11 8 22 12 25 9 3 -3 -1 -9 -9 -14z
m-1545 -20 c-10 -11 -21 -17 -24 -14 -3 3 3 12 13 20 28 20 32 17 11 -6z m179
-16 c20 -8 21 -20 2 -27 -8 -3 -22 3 -32 14 -15 17 -15 19 -1 19 8 0 22 -3 31
-6z m1333 -40 c-3 -3 -12 -4 -19 -1 -8 3 -5 6 6 6 11 1 17 -2 13 -5z m-1277
-18 c0 -3 -4 -8 -10 -11 -5 -3 -10 -1 -10 4 0 6 5 11 10 11 6 0 10 -2 10 -4z
m-210 -31 c0 -8 -4 -15 -9 -15 -5 0 -11 7 -15 15 -3 9 0 15 9 15 8 0 15 -7 15
-15z m957 -1 c-3 -3 -12 -4 -19 -1 -8 3 -5 6 6 6 11 1 17 -2 13 -5z m-130 -40
c-3 -3 -12 -4 -19 -1 -8 3 -5 6 6 6 11 1 17 -2 13 -5z m-772 -64 c10 -11 13
-20 7 -20 -6 0 -14 5 -17 10 -3 6 -16 10 -28 10 -18 0 -19 2 -7 10 21 13 24
13 45 -10z m-165 -151 c0 -10 -7 -19 -15 -19 -15 0 -21 31 -9 43 11 10 24 -3
24 -24z m107 -52 c8 -16 7 -25 -2 -34 -15 -13 -25 2 -25 38 0 26 15 24 27 -4z
m448 -9 c14 -6 25 -16 25 -21 0 -5 9 -7 20 -4 19 5 20 0 20 -144 l0 -149 -24
0 c-19 0 -27 8 -36 34 l-11 34 -77 -1 c-96 -2 -142 18 -142 62 0 24 8 34 45
55 24 15 50 36 56 47 6 12 17 18 25 15 9 -4 19 7 29 31 13 31 30 52 42 53 1 0
14 -5 28 -12z m-619 -78 c16 0 19 -36 4 -45 -5 -3 -10 -2 -10 3 0 5 -13 26
-30 47 -37 46 -40 69 -4 26 14 -17 32 -31 40 -31z m24 30 c0 -5 -5 -10 -11
-10 -5 0 -7 5 -4 10 3 6 8 10 11 10 2 0 4 -4 4 -10z m250 -27 c12 -12 7 -11
-20 2 -45 22 -52 29 -20 20 14 -4 32 -14 40 -22z m-118 5 c-9 -9 -15 -9 -24 0
-9 9 -7 12 12 12 19 0 21 -3 12 -12z m195 -54 c13 -14 22 -28 20 -30 -8 -8
-67 28 -67 42 0 22 20 17 47 -12z m800 -30 c-3 -3 -12 -4 -19 -1 -8 3 -5 6 6
6 11 1 17 -2 13 -5z m-70 -30 c-3 -3 -12 -4 -19 -1 -8 3 -5 6 6 6 11 1 17 -2
13 -5z m-948 -30 c-15 -18 -63 -44 -81 -44 -7 1 3 8 22 16 19 8 38 22 43 30 4
7 13 14 19 14 6 0 6 -6 -3 -16z m61 -37 c0 -2 -17 -19 -37 -38 l-37 -34 30 37
c25 31 44 46 44 35z m-400 -20 c0 -2 -11 -18 -25 -37 -14 -19 -25 -44 -25 -56
0 -13 -4 -26 -10 -29 -5 -3 -8 0 -6 7 3 7 7 25 10 39 7 30 56 98 56 76z m530
-18 c88 -34 248 -69 345 -76 102 -6 222 10 370 52 50 15 100 29 113 32 18 4
33 -4 69 -38 24 -24 53 -56 64 -71 l20 -27 -30 -65 c-44 -93 -80 -244 -88
-362 -7 -124 -1 -157 30 -152 18 2 22 9 22 38 l0 35 185 0 c102 0 293 -2 424
-5 l239 -5 38 -51 38 -51 -37 18 c-47 24 -76 24 -129 -2 -55 -27 -65 -45 -79
-148 -13 -95 -27 -115 -79 -115 -47 0 -86 40 -114 119 -25 68 -82 157 -115
179 -19 12 -117 36 -147 36 -4 0 -13 -16 -20 -35 -9 -24 -18 -34 -29 -31 -8 3
-34 10 -58 17 -33 10 -54 10 -97 0 -30 -7 -57 -16 -59 -19 -6 -10 23 -164 33
-177 4 -5 13 -29 20 -51 l14 -42 -45 -43 c-24 -24 -53 -56 -64 -71 l-19 -28
-85 21 c-106 25 -300 42 -405 34 -102 -8 -301 -42 -328 -57 -18 -9 -24 -6 -47
23 -14 19 -45 53 -69 77 l-44 42 32 103 c75 238 64 492 -33 710 -14 32 -26 63
-26 70 1 14 114 137 127 137 4 0 33 -10 63 -21z m-223 -67 c-33 -34 -33 -38
-4 -104 53 -119 97 -280 97 -356 0 -24 -5 -29 -40 -38 -42 -12 -50 -6 -50 37
0 11 -12 38 -27 61 -30 44 -31 57 -22 236 4 78 2 85 -20 103 -44 36 -104 15
-95 -33 4 -21 4 -21 -6 2 -10 21 -8 28 11 42 11 10 32 18 46 18 26 0 98 33
108 50 3 5 11 10 17 10 7 0 0 -13 -15 -28z m1621 -7 c-3 -3 -9 2 -12 12 -6 14
-5 15 5 6 7 -7 10 -15 7 -18z m-148 5 c0 -5 -4 -10 -10 -10 -5 0 -10 5 -10 10
0 6 5 10 10 10 6 0 10 -4 10 -10z m250 -45 c-7 -8 -17 -15 -22 -15 -6 0 -5 7
2 15 7 8 17 15 22 15 6 0 5 -7 -2 -15z m-148 -37 c-19 -19 -15 -24 29 -37 34
-10 43 -10 50 1 7 10 9 8 9 -6 0 -11 8 -28 17 -38 13 -15 8 -14 -28 6 -69 38
-104 42 -123 14 l-16 -22 0 23 c0 20 -4 22 -32 17 -26 -4 -24 -2 9 9 24 7 53
21 65 29 27 19 37 21 20 4z m181 -5 c-7 -2 -19 -2 -25 0 -7 3 -2 5 12 5 14 0
19 -2 13 -5z m93 -38 c-16 -25 -16 -30 10 -118 14 -51 44 -130 65 -176 22 -46
37 -86 35 -88 -2 -3 -84 -5 -183 -6 -169 -2 -178 -1 -164 16 9 9 21 17 27 17
14 0 74 66 74 81 0 5 10 23 22 40 20 26 21 34 11 77 -5 26 -13 54 -17 63 -5
12 -1 18 16 23 26 7 88 60 88 76 0 5 -6 10 -12 11 -7 1 -2 4 12 8 33 10 36 6
16 -24z m-1986 -30 c7 -9 8 -15 2 -15 -5 0 -12 7 -16 15 -3 8 -4 15 -2 15 2 0
9 -7 16 -15z m1538 -6 c-33 -24 -34 -35 -10 -63 17 -21 17 -21 -4 -3 -29 24
-41 21 -59 -14 -9 -17 -19 -28 -22 -25 -3 3 2 17 11 30 9 14 16 31 16 38 0 7
20 23 43 35 53 28 60 28 25 2z m-1617 -77 c-12 -8 -21 -20 -21 -27 0 -6 -9
-20 -20 -30 -18 -17 -27 -18 -83 -8 -52 9 -65 8 -80 -5 -9 -8 -20 -13 -23 -9
-3 3 5 12 18 20 18 12 33 14 68 7 79 -16 90 -13 105 23 8 19 21 39 29 47 9 7
17 20 17 29 1 9 4 5 6 -9 4 -17 -1 -29 -16 -38z m85 -34 c-8 -49 -21 -68 -47
-68 -15 0 -19 -7 -19 -34 0 -19 4 -36 8 -38 4 -1 15 -21 23 -43 13 -35 21 -42
59 -52 l45 -13 -40 5 c-22 3 -59 8 -83 11 -28 4 -52 2 -68 -6 -17 -10 -30 -10
-46 -3 -13 5 -34 6 -48 2 -14 -4 -52 -7 -85 -6 l-60 0 60 6 c33 4 70 13 82 21
18 11 25 12 35 2 15 -15 54 -16 63 -1 13 21 -5 57 -36 69 -24 10 -44 11 -92 2
-64 -12 -84 -6 -74 22 12 32 55 47 154 55 131 11 149 19 158 70 4 23 9 41 12
41 3 0 3 -19 -1 -42z m1811 26 c-3 -3 -12 -4 -19 -1 -8 3 -5 6 6 6 11 1 17 -2
13 -5z m-140 -26 c34 -32 28 -44 -8 -14 -38 32 -63 33 -94 2 -15 -15 -28 -20
-37 -15 -11 7 -11 9 0 9 8 0 25 9 39 20 33 26 71 25 100 -2z m-279 -24 c26 -5
30 -11 35 -45 10 -73 58 -121 122 -121 20 0 42 5 49 11 9 8 16 9 20 2 9 -13
57 4 74 26 7 10 12 12 12 5 0 -7 -16 -29 -35 -51 -19 -21 -35 -44 -35 -50 0
-14 -17 -15 -22 0 -4 11 -55 15 -224 18 -84 1 -113 4 -117 14 -5 12 17 151 28
185 5 13 44 16 93 6z m316 -40 c10 -25 6 -41 -5 -22 -8 14 -15 15 -35 8 -35
-14 -85 -13 -64 0 8 5 27 10 42 10 15 0 30 5 33 10 9 15 22 12 29 -6z m-1567
-190 c-3 -3 -12 -4 -19 -1 -8 3 -5 6 6 6 11 1 17 -2 13 -5z m1550 0 c-3 -3
-12 -4 -19 -1 -8 3 -5 6 6 6 11 1 17 -2 13 -5z m-1467 -61 c-1 -58 -24 -158
-61 -261 l-33 -93 66 -67 c36 -37 75 -82 87 -99 22 -32 22 -32 59 -19 81 30
180 49 320 62 l52 5 0 -798 c-1 -439 -4 -803 -8 -810 -4 -7 -23 20 -47 65 -53
100 -165 216 -260 267 -38 21 -140 77 -225 125 -106 60 -170 89 -202 94 -42 6
-48 10 -48 31 0 18 -20 36 -94 84 -51 33 -126 85 -167 116 -40 30 -80 55 -88
55 -23 0 -109 -47 -156 -85 -80 -64 -74 -65 -156 32 -41 48 -94 109 -119 137
-25 28 -63 74 -85 101 -22 28 -71 86 -110 131 -175 202 -205 239 -205 251 0 4
17 19 38 33 91 60 183 134 252 204 41 42 80 76 87 76 18 0 85 -109 109 -178
13 -35 30 -75 39 -88 48 -73 143 -154 181 -154 37 0 -9 -142 -66 -205 -65 -71
-100 -127 -100 -159 0 -18 2 -35 6 -38 12 -13 79 12 108 40 72 70 210 163 265
179 67 20 172 19 244 -2 74 -22 86 -32 35 -31 -42 1 -43 0 -75 -59 -49 -93
-70 -106 -160 -103 -56 1 -77 -2 -83 -12 -6 -10 -4 -18 8 -24 9 -5 22 -15 27
-21 6 -7 38 -22 72 -34 57 -21 68 -22 165 -12 137 14 180 23 186 40 3 10 0 12
-14 7 -37 -16 -86 -27 -91 -22 -3 2 11 8 31 11 20 4 39 11 42 16 7 12 -8 11
-40 -1 -34 -13 -33 -5 2 15 24 14 25 16 4 11 -19 -4 -21 -2 -11 10 18 22 34
17 73 -26 30 -33 35 -45 30 -68 -14 -56 -24 -72 -61 -91 -65 -33 -121 -105
-99 -126 21 -21 79 -24 116 -5 62 32 130 60 144 60 24 0 134 109 146 145 13
40 13 40 45 19 13 -9 29 -13 35 -9 6 4 17 1 25 -5 12 -10 15 -10 15 1 0 10 3
10 12 1 7 -7 18 -12 26 -12 12 0 12 3 2 15 -8 9 -9 15 -2 15 6 0 14 -4 17 -10
7 -11 48 -14 58 -4 4 4 -10 30 -31 57 -36 50 -37 53 -40 154 -3 57 -8 103 -13
103 -5 0 -9 -17 -9 -37 0 -40 -18 -83 -21 -53 -1 8 -3 40 -4 70 -2 37 -10 68
-26 94 -15 26 -19 41 -12 43 15 5 6 30 -19 55 -10 10 -18 24 -18 31 0 17 -64
79 -73 71 -3 -3 -37 15 -75 40 -72 47 -106 58 -95 31 5 -13 2 -14 -21 -4 -14
7 -26 18 -26 25 0 7 -6 11 -13 8 -11 -4 -147 51 -147 59 0 5 105 -10 123 -18
15 -6 14 -3 -5 17 -15 16 -47 30 -92 41 -79 19 -116 47 -116 88 0 36 17 45
132 69 115 25 134 40 48 39 -50 -1 -66 3 -77 17 -17 24 -17 35 2 28 11 -4 15
0 15 16 0 20 -3 22 -32 15 -67 -15 -82 -15 -43 0 22 8 50 20 63 27 16 8 28 8
45 0 64 -31 149 -18 134 21 -4 12 -20 16 -64 15 -35 0 -70 6 -88 16 -35 19
-65 20 -98 5 -16 -7 -38 -8 -68 -1 -44 10 -44 10 -9 11 59 2 15 19 -71 26 -74
7 -115 -1 -107 -21 1 -5 -12 -14 -30 -20 -17 -5 -37 -15 -44 -22 -7 -7 -20
-12 -29 -12 -49 0 -68 -85 -26 -115 22 -16 22 -16 -8 -10 l-30 7 23 -19 c18
-15 21 -25 16 -51 -4 -17 -10 -32 -14 -32 -4 0 -10 -9 -13 -21 -4 -13 -10 -18
-17 -14 -9 5 -10 1 -6 -13 4 -13 1 -22 -9 -26 -9 -3 -15 -18 -15 -40 0 -30 -4
-37 -25 -42 -29 -7 -40 -1 -30 16 4 6 15 8 26 5 11 -4 19 -2 19 4 0 6 -8 11
-19 11 -20 0 -88 62 -159 145 -27 31 -45 45 -48 38 -8 -19 -34 -15 -34 5 0 10
-7 27 -15 40 -15 21 -15 22 12 16 25 -5 32 0 63 43 38 53 115 174 142 222 l17
30 163 3 c90 2 279 4 421 6 l257 3 0 -38z m1410 -103 c24 -22 42 -42 39 -45
-13 -12 -139 41 -139 59 0 6 5 5 12 -2 15 -15 32 -16 23 -2 -7 11 2 30 13 30
4 -1 27 -18 52 -40z m-252 -7 c-10 -2 -18 -6 -18 -8 0 -2 18 -21 39 -43 37
-38 42 -39 81 -32 23 4 38 4 33 0 -4 -5 -21 -10 -37 -12 -26 -3 -30 -9 -43
-57 -17 -67 -96 -171 -125 -163 -25 6 -23 11 15 43 l32 27 -18 49 c-24 63 -57
175 -57 190 0 9 17 13 58 12 31 -1 49 -3 40 -6z m122 -34 c7 -11 9 -23 6 -27
-3 -3 -6 0 -6 6 0 6 -7 18 -16 26 -8 9 -11 16 -5 16 6 0 15 -9 21 -21z m770
-11 c0 -6 -6 -5 -15 2 -8 7 -15 14 -15 16 0 2 7 1 15 -2 8 -4 15 -11 15 -16z
m-2325 -23 c-5 -2 -82 -5 -170 -7 -88 -3 -146 -1 -130 3 29 6 320 11 300 4z
m-348 -36 c-8 -13 -6 -24 7 -44 16 -24 22 -26 54 -20 21 3 65 15 98 27 34 11
70 18 80 16 12 -3 3 -9 -26 -17 -25 -6 -66 -18 -92 -26 -50 -16 -108 -20 -108
-7 -1 4 -10 18 -20 31 -17 19 -23 21 -35 11 -21 -17 -31 -5 -14 17 12 15 12
16 -3 10 -10 -3 -18 -2 -18 2 0 12 16 17 55 17 28 0 31 -2 22 -17z m128 -9 c0
-9 -11 -16 -27 -18 -20 -2 -28 1 -28 12 0 8 6 17 13 19 21 9 42 2 42 -13z
m2365 -50 c0 -11 -4 -20 -10 -20 -5 0 -10 9 -10 20 0 11 5 20 10 20 6 0 10 -9
10 -20z m265 -11 c9 -17 14 -33 11 -36 -3 -3 -10 7 -16 22 -6 15 -13 32 -16
36 -3 5 -3 9 0 9 3 0 13 -14 21 -31z m-213 -9 c-15 -16 -30 -30 -34 -30 -5 0
1 9 12 20 11 11 20 25 20 30 0 6 6 10 14 10 10 0 5 -10 -12 -30z m88 21 c0 -5
-7 -14 -15 -21 -8 -7 -15 -20 -16 -29 0 -12 -2 -11 -9 4 -13 29 -12 35 5 35 8
0 15 5 15 10 0 6 5 10 10 10 6 0 10 -4 10 -9z m-527 -38 c8 -14 -12 -53 -28
-53 -8 0 -15 5 -15 10 0 6 7 10 16 10 11 0 14 6 9 20 -6 19 9 29 18 13z m364
-55 c-3 -7 -5 -2 -5 12 0 14 2 19 5 13 2 -7 2 -19 0 -25z m-2490 -15 c-3 -10
-5 -4 -5 12 0 17 2 24 5 18 2 -7 2 -21 0 -30z m2838 -13 c49 -59 204 -192 283
-242 l62 -40 -21 -26 c-11 -15 -69 -81 -127 -148 -161 -182 -226 -262 -234
-287 -8 -23 -4 13 13 123 13 82 14 452 1 477 -8 16 -25 199 -17 191 2 -2 20
-23 40 -48z m-810 31 c-3 -5 0 -13 6 -17 9 -5 7 -11 -6 -21 -34 -24 -46 -16
-27 17 9 16 21 30 25 30 5 0 6 -4 2 -9z m-2042 -108 c3 -29 8 -57 12 -62 3 -6
1 -11 -4 -11 -6 0 -11 6 -11 14 0 8 -7 21 -15 30 -16 16 -19 31 -16 91 2 40 2
40 15 15 8 -14 16 -48 19 -77z m257 87 c0 -6 -7 -10 -15 -10 -8 0 -24 -5 -35
-12 -21 -14 -35 -6 -27 15 6 16 77 22 77 7z m1907 -38 c-13 -13 -19 -13 -31
-2 -9 7 -16 18 -15 24 0 7 2 6 6 -1 7 -19 33 -16 40 4 5 12 8 13 11 4 2 -7 -3
-20 -11 -29z m341 -2 c0 -35 -3 -40 -24 -40 -12 0 -25 4 -28 9 -3 5 2 8 11 7
10 0 19 7 21 19 10 57 21 60 20 5z m-2567 -17 c-9 -16 -10 -14 -11 12 0 21 3
26 11 18 8 -8 8 -16 0 -30z m106 -19 c-12 -13 -37 6 -37 28 l0 22 22 -21 c12
-13 19 -25 15 -29z m118 35 c7 -10 -21 -38 -37 -39 -12 0 -9 25 4 38 15 15 25
15 33 1z m2280 1 c3 -5 -1 -10 -10 -10 -9 0 -13 5 -10 10 3 6 8 10 10 10 2 0
7 -4 10 -10z m-2351 -16 c3 -9 6 -28 6 -42 0 -21 -2 -24 -10 -12 -7 11 -10 11
-10 2 0 -7 -4 -10 -10 -7 -11 7 -14 58 -3 68 11 11 20 8 27 -9z m1651 -61 c-9
-15 -14 -20 -11 -10 4 11 9 31 13 45 5 19 8 22 11 10 2 -9 -4 -29 -13 -45z
m350 47 c-3 -5 -14 -10 -23 -10 -15 0 -15 2 -2 10 20 13 33 13 25 0z m535 -19
c0 -16 3 -38 6 -48 6 -16 5 -16 -9 2 -18 22 -23 75 -7 75 6 0 10 -13 10 -29z
m-223 -23 c-3 -7 -5 -2 -5 12 0 14 2 19 5 13 2 -7 2 -19 0 -25z m-1009 6 c24
-3 46 -12 49 -20 3 -8 -4 -67 -16 -132 -30 -168 -53 -374 -42 -385 5 -5 18 -4
31 3 21 11 21 11 6 -18 -14 -27 -13 -37 15 -138 16 -60 41 -163 54 -229 14
-66 32 -125 39 -130 10 -8 11 -16 4 -29 -16 -28 8 -46 27 -20 8 10 15 25 15
32 0 7 10 28 23 45 30 42 70 144 64 161 -3 8 5 21 19 30 14 10 24 26 24 40 0
13 7 29 16 36 8 8 21 28 29 47 8 18 19 33 26 33 7 0 20 7 29 15 15 13 16 9 13
-48 -5 -78 5 -97 40 -74 24 15 37 14 37 -5 0 -4 -7 -8 -15 -8 -16 0 -18 -22
-15 -127 1 -50 0 -53 -37 -76 -22 -14 -46 -35 -54 -47 -8 -13 -30 -28 -48 -34
-45 -15 -61 -40 -39 -62 23 -23 47 -11 92 47 23 29 50 52 65 55 14 3 40 12 56
21 l30 16 -22 -25 c-27 -29 -29 -38 -8 -38 18 0 65 43 65 59 0 6 -8 8 -17 5
-15 -5 -16 -4 -3 5 8 6 34 11 57 11 44 0 65 16 42 31 -8 5 -31 8 -52 7 -43 -2
-56 11 -49 47 4 24 -17 55 -37 55 -6 0 -11 7 -11 16 0 8 4 13 9 9 5 -3 19 14
31 37 33 67 49 85 59 70 6 -10 14 -4 30 22 24 38 31 41 59 27 9 -5 24 -12 33
-14 12 -4 16 -23 17 -99 2 -79 -1 -98 -18 -123 -25 -38 -25 -55 -1 -55 11 0
23 -4 26 -10 10 -16 -31 -11 -45 5 -19 23 -30 18 -30 -14 0 -27 -3 -29 -37
-29 -31 0 -44 -7 -75 -40 -35 -38 -39 -40 -66 -30 -25 10 -34 7 -73 -20 -25
-16 -51 -38 -58 -46 -15 -18 -62 -41 -101 -50 -36 -8 -197 -110 -243 -154 -63
-60 -125 -146 -157 -216 -16 -37 -33 -66 -37 -66 -8 0 -6 1605 2 1628 5 13 42
12 173 -4z m899 -26 c-3 -8 -6 -5 -6 6 -1 11 2 17 5 13 3 -3 4 -12 1 -19z
m-206 -8 c-8 -4 -21 -5 -30 -2 -12 5 -10 8 9 12 29 8 40 3 21 -10z m293 10
c14 -5 26 -14 26 -20 0 -15 -16 -12 -34 6 -25 24 -38 7 -33 -45 2 -25 2 -37 0
-26 -3 11 -12 28 -20 38 -9 9 -11 17 -5 17 6 0 14 9 17 20 7 23 13 24 49 10z
m354 -69 c-15 -5 -18 3 -11 29 l7 25 6 -25 c3 -14 2 -27 -2 -29z m-1008 24 c0
-8 -4 -15 -10 -15 -5 0 -7 7 -4 15 4 8 8 15 10 15 2 0 4 -7 4 -15z m782 -34
c-6 -3 -16 -18 -22 -31 -8 -21 -9 -17 -4 20 8 58 15 69 28 41 7 -16 6 -25 -2
-30z m-2542 29 c0 -5 -2 -10 -4 -10 -3 0 -8 5 -11 10 -3 6 -1 10 4 10 6 0 11
-4 11 -10z m2035 0 c-3 -5 -14 -10 -23 -9 -14 0 -13 2 3 9 27 11 27 11 20 0z
m-2125 -46 l0 -33 -34 20 c-23 13 -43 18 -60 13 -31 -7 -34 1 -5 16 16 9 26 8
44 -4 28 -19 35 -20 35 -6 0 5 -11 12 -25 16 -34 9 -23 22 15 16 27 -4 30 -8
30 -38z m1987 4 c-3 -7 -5 -2 -5 12 0 14 2 19 5 13 2 -7 2 -19 0 -25z m-1389
-8 c9 -5 37 -14 61 -20 23 -6 40 -14 37 -17 -8 -8 -126 28 -126 39 0 11 6 10
28 -2z m-498 -14 c0 -8 -6 -17 -12 -19 -9 -4 -8 -6 2 -6 9 -1 21 -14 27 -30 9
-26 8 -32 -9 -48 -19 -17 -21 -17 -39 6 -22 26 -24 41 -8 41 7 0 9 11 6 29 -4
19 -2 31 6 35 21 8 27 6 27 -8z m2673 -6 c3 -11 1 -18 -4 -14 -5 3 -9 12 -9
20 0 20 7 17 13 -6z m-957 -35 c-9 -7 -16 -22 -16 -33 0 -14 -5 -20 -14 -16
-10 4 -18 -6 -27 -35 -13 -43 -24 -46 -31 -7 -4 17 -1 23 8 19 8 -3 18 6 24
22 5 14 22 43 38 62 22 30 28 33 31 18 2 -10 -4 -24 -13 -30z m884 16 c-13
-25 -23 -26 -41 -5 -12 15 -11 16 9 10 16 -5 24 -3 28 9 4 9 9 14 11 11 3 -2
0 -14 -7 -25z m-1955 9 c3 -6 -1 -7 -9 -4 -18 7 -21 14 -7 14 6 0 13 -4 16
-10z m1195 -10 c0 -11 -7 -20 -15 -20 -8 0 -15 9 -15 20 0 11 7 20 15 20 8 0
15 -9 15 -20z m90 5 c-7 -8 -20 -14 -29 -14 -13 1 -13 2 2 6 9 2 17 9 17 14 0
5 5 9 11 9 8 0 8 -5 -1 -15z m554 -25 c9 0 16 -7 16 -15 0 -20 -9 -19 -33 3
-15 12 -21 14 -24 5 -6 -16 -63 -17 -63 -2 0 5 4 8 9 4 6 -3 18 6 28 19 18 25
18 25 35 6 9 -11 23 -20 32 -20z m-2576 -50 c0 -32 -1 -33 -8 -10 -4 14 -8 39
-8 55 -1 25 1 27 8 10 5 -11 8 -36 8 -55z m2894 48 c-6 -6 -15 -8 -19 -4 -4 4
-1 11 7 16 19 12 27 3 12 -12z m-2945 -23 c3 -9 3 -18 0 -21 -7 -8 -47 15 -47
26 0 16 40 11 47 -5z m746 8 c-7 -2 -19 -2 -25 0 -7 3 -2 5 12 5 14 0 19 -2
13 -5z m967 0 c0 -5 -5 -15 -10 -23 -8 -12 -10 -11 -10 8 0 12 5 22 10 22 6 0
10 -3 10 -7z m55 -2 c3 -5 -6 -21 -20 -35 -14 -14 -25 -24 -25 -22 0 2 5 17
11 35 11 31 23 39 34 22z m1086 -32 c-8 -22 -10 -22 -16 -5 -5 11 -3 21 6 26
19 12 21 7 10 -21z m-958 -4 c4 -8 2 -17 -3 -20 -6 -4 -10 -4 -10 -1 0 2 -3
11 -6 20 -3 9 -2 16 4 16 5 0 12 -7 15 -15z m-1609 -30 c3 -8 9 -15 13 -14 19
3 33 -2 33 -11 0 -20 -38 -9 -54 15 -9 14 -12 25 -7 25 5 0 11 -7 15 -15z m70
-1 c9 -24 7 -28 -9 -14 -17 14 -20 30 -6 30 5 0 12 -7 15 -16z m426 6 c0 -5
-2 -10 -4 -10 -3 0 -8 5 -11 10 -3 6 -1 10 4 10 6 0 11 -4 11 -10z m935 -37
c-4 -10 -11 -47 -15 -83 -4 -36 -8 -56 -9 -45 -1 18 -4 17 -26 -8 -14 -15 -25
-39 -25 -53 0 -17 -5 -24 -20 -24 -23 0 -23 -2 35 95 14 22 25 51 25 65 0 42
12 70 27 70 11 0 13 -5 8 -17z m682 -1 c-10 -10 -17 -27 -18 -38 0 -12 -3 -14
-6 -6 -6 16 16 62 30 62 6 0 3 -8 -6 -18z m-1890 -9 c24 -10 43 -21 43 -25 0
-11 -1 -11 -61 16 -62 28 -46 35 18 9z m1413 -4 c0 -18 -2 -19 -15 -9 -8 7
-15 16 -15 21 0 5 7 9 15 9 9 0 15 -9 15 -21z m647 -21 c-3 -7 -5 -2 -5 12 0
14 2 19 5 13 2 -7 2 -19 0 -25z m-2435 -28 c-2 -17 -8 -33 -14 -36 -5 -3 -6 6
-2 23 12 50 23 59 16 13z m389 10 l24 -21 -35 17 c-43 21 -47 24 -28 24 9 0
26 -9 39 -20z m1444 -37 c18 7 19 3 5 -24 -12 -21 -40 -26 -40 -6 0 6 -3 23
-6 37 -5 24 -5 24 10 6 8 -10 22 -16 31 -13z m85 6 c-12 -21 -31 -22 -38 -1
-2 7 2 10 11 6 8 -3 18 -1 22 5 12 20 16 11 5 -10z m320 11 c0 -5 -7 -10 -15
-10 -8 0 -15 5 -15 10 0 6 7 10 15 10 8 0 15 -4 15 -10z m-1815 -20 c22 -11
34 -19 27 -20 -16 0 -82 27 -82 34 0 10 13 6 55 -14z m2005 -1 c-15 -26 -2
-136 14 -118 1 2 15 31 31 64 31 69 41 61 26 -21 -17 -90 2 -88 48 5 23 44 43
81 45 81 2 0 4 -39 5 -86 1 -88 8 -134 20 -134 6 0 11 10 50 103 11 26 25 47
31 47 12 0 12 -5 1 -50 -5 -19 -11 -63 -14 -97 -7 -92 13 -81 59 33 21 52 41
97 44 99 3 2 6 -53 6 -121 0 -90 -3 -124 -12 -124 -6 0 -29 -21 -50 -47 -21
-27 -53 -63 -70 -82 l-32 -34 -71 52 c-100 72 -113 77 -145 56 -23 -16 -26
-16 -20 -1 10 27 -23 30 -76 7 -77 -33 -119 -25 -112 22 2 9 -2 17 -7 17 -19
0 -12 28 24 87 19 32 42 81 51 108 22 67 62 145 74 145 6 0 10 -13 10 -30 0
-40 13 -38 39 5 22 38 50 51 31 14z m-723 -46 c-3 -10 -5 -4 -5 12 0 17 2 24
5 18 2 -7 2 -21 0 -30z m-1257 5 c10 -6 6 -7 -15 -3 -16 4 -34 11 -40 17 -12
12 31 1 55 -14z m1222 -60 c3 -27 2 -48 -3 -48 -5 0 -9 23 -9 52 0 62 5 60 12
-4z m-1196 15 c-6 -6 -36 9 -36 18 0 5 9 4 20 -3 10 -7 18 -14 16 -15z m1337
-23 c-3 -11 -7 -20 -9 -20 -2 0 -4 9 -4 20 0 11 4 20 9 20 5 0 7 -9 4 -20z
m-84 -48 c1 -7 -3 -10 -9 -7 -5 3 -10 21 -9 38 1 31 1 31 9 7 4 -14 8 -31 9
-38z m-1254 -21 c-3 -6 -10 -9 -14 -6 -5 2 -17 -2 -27 -10 -36 -27 -39 -15 -4
15 32 26 62 27 45 1z m-583 -3 c-7 -7 -12 -8 -12 -2 0 6 3 14 7 17 3 4 9 5 12
2 2 -3 -1 -11 -7 -17z m518 7 c-7 -8 -17 -15 -22 -15 -6 0 -5 7 2 15 7 8 17
15 22 15 6 0 5 -7 -2 -15z m-550 -15 c0 -5 -5 -10 -11 -10 -5 0 -7 5 -4 10 3
6 8 10 11 10 2 0 4 -4 4 -10z m1690 -28 c0 -15 -2 -15 -10 -2 -13 20 -13 33 0
25 6 -3 10 -14 10 -23z m177 6 c-3 -8 -6 -5 -6 6 -1 11 2 17 5 13 3 -3 4 -12
1 -19z m-1282 -8 c-3 -5 -11 -10 -16 -10 -6 0 -7 5 -4 10 3 6 11 10 16 10 6 0
7 -4 4 -10z m1168 -23 c3 -8 1 -20 -4 -28 -6 -10 -9 -7 -9 14 0 29 5 35 13 14z
m124 -29 c-3 -8 -6 -5 -6 6 -1 11 2 17 5 13 3 -3 4 -12 1 -19z m-157 -28 c0
-5 -2 -10 -4 -10 -3 0 -8 5 -11 10 -3 6 -1 10 4 10 6 0 11 -4 11 -10z m-1160
-30 c0 -5 -4 -10 -10 -10 -5 0 -10 5 -10 10 0 6 5 10 10 10 6 0 10 -4 10 -10z
m385 -19 c-3 -12 -10 -21 -15 -21 -5 0 -4 11 2 25 13 29 23 26 13 -4z m945 19
c0 -5 -4 -10 -10 -10 -5 0 -10 5 -10 10 0 6 5 10 10 10 6 0 10 -4 10 -10z
m-50 -28 c0 -15 -2 -15 -10 -2 -13 20 -13 33 0 25 6 -3 10 -14 10 -23z m-113
-34 c-3 -7 -5 -2 -5 12 0 14 2 19 5 13 2 -7 2 -19 0 -25z m768 -15 c-16 -9
-43 -16 -59 -17 -29 -1 -57 -29 -43 -43 4 -4 17 -2 27 5 24 14 30 15 30 3 0
-5 -21 -16 -47 -25 -58 -20 -60 -20 -41 2 9 9 19 27 22 39 6 20 32 33 91 46
41 9 49 6 20 -10z m-728 -35 c-3 -7 -5 -2 -5 12 0 14 2 19 5 13 2 -7 2 -19 0
-25z m-897 14 c0 -4 -5 -13 -12 -20 -18 -18 -28 -15 -28 8 0 13 7 20 20 20 11
0 20 -4 20 -8z m857 -54 c-2 -13 -4 -3 -4 22 0 25 2 35 4 23 2 -13 2 -33 0
-45z m40 -55 c-3 -10 -5 -4 -5 12 0 17 2 24 5 18 2 -7 2 -21 0 -30z m568 17
c-3 -5 -11 -10 -16 -10 -6 0 -7 5 -4 10 3 6 11 10 16 10 6 0 7 -4 4 -10z
m-1630 -21 c-22 -10 -47 -18 -55 -18 -8 0 3 9 25 20 22 10 47 18 55 18 8 0 -3
-9 -25 -20z"/>
<path d="M3453 4824 c-48 -21 -69 -44 -43 -44 17 0 85 37 99 54 18 21 6 19
-56 -10z"/>
<path d="M2580 3949 c0 -7 22 -33 49 -60 57 -56 53 -37 81 -349 12 -124 23
-235 25 -247 2 -16 -10 -39 -40 -75 -24 -29 -41 -56 -39 -60 6 -9 225 -11 248
-2 13 5 8 17 -24 64 l-40 59 0 130 c0 115 2 130 18 135 9 3 82 4 162 2 l145
-4 3 -137 3 -137 -36 -49 c-20 -27 -34 -53 -30 -59 9 -14 255 -13 255 1 0 6
-18 32 -41 57 -38 44 -40 49 -35 97 3 27 10 97 16 155 5 58 15 141 20 185 5
44 12 102 14 130 4 44 10 54 55 96 28 26 51 52 51 58 0 8 -59 11 -192 11
l-192 0 57 -58 57 -58 0 -82 c0 -71 -2 -82 -17 -83 -37 -1 -298 3 -300 5 -1 1
-3 39 -4 85 l-2 83 52 52 52 53 -47 7 c-83 11 -324 7 -324 -5z"/>
<path d="M2243 3198 c2 -8 19 -12 43 -11 21 1 49 2 62 2 13 1 20 6 17 11 -10
15 -128 13 -122 -2z"/>
<path d="M1720 3095 c0 -18 4 -23 15 -19 11 5 13 10 5 19 -5 6 -7 15 -3 18 3
4 1 7 -5 7 -7 0 -12 -11 -12 -25z"/>
<path d="M2360 2920 c35 -24 54 -31 30 -11 -14 11 -29 21 -35 21 -5 0 -3 -5 5
-10z"/>
<path d="M3848 3348 c9 -9 15 -9 24 0 9 9 7 12 -12 12 -19 0 -21 -3 -12 -12z"/>
<path d="M5870 3074 c-64 -137 -129 -254 -139 -254 -3 0 -26 34 -51 75 -57 98
-124 174 -139 159 -8 -7 -8 -26 -1 -63 30 -159 -15 -319 -133 -476 -114 -152
-401 -388 -712 -585 -260 -165 -365 -239 -431 -306 -68 -68 -114 -142 -114
-185 0 -11 21 -35 49 -56 28 -21 50 -43 50 -48 1 -13 -130 -101 -204 -138
-227 -113 -555 -204 -875 -242 -170 -20 -320 -19 -491 5 -374 51 -722 177
-962 348 -54 39 -52 51 13 72 23 7 44 18 47 23 12 20 14 77 2 99 -26 49 -126
141 -213 195 -181 114 -404 285 -567 437 -37 33 -111 102 -166 153 -54 50
-123 111 -153 134 -202 155 -304 412 -256 639 21 98 21 106 -1 89 -20 -17
-123 -175 -161 -246 -15 -29 -30 -53 -35 -53 -7 0 -49 84 -111 223 -43 95 -55
77 -56 -86 -1 -138 17 -252 55 -347 7 -19 16 -46 19 -60 8 -40 131 -247 197
-335 76 -100 396 -415 514 -506 17 -13 31 -26 33 -30 7 -16 342 -269 374 -283
8 -3 -15 -31 -60 -73 -49 -47 -72 -75 -72 -91 0 -96 174 -272 370 -375 120
-64 210 -106 276 -130 21 -8 109 -40 194 -72 169 -63 371 -128 377 -121 2 2
-17 12 -44 21 -26 10 -112 42 -190 72 -134 52 -140 56 -124 72 10 10 25 20 34
24 9 3 27 27 39 52 29 59 42 58 35 -5 -8 -63 5 -65 58 -10 21 22 42 40 47 40
6 0 -9 -60 -26 -101 -9 -20 19 -50 39 -43 10 4 15 21 15 53 0 30 10 66 30 106
16 32 27 62 24 66 -2 4 -15 10 -29 13 -21 5 -32 0 -62 -31 l-35 -38 -10 25
c-5 13 -7 34 -3 47 6 26 -26 53 -63 53 -21 0 -23 -3 -17 -29 5 -22 -4 -47 -35
-107 -50 -95 -46 -90 -65 -74 -9 8 -15 29 -15 54 1 35 5 44 33 61 22 14 35 32
41 57 13 51 -9 82 -69 97 -52 13 -65 9 -65 -22 0 -28 -77 -137 -96 -137 -8 0
-14 -7 -14 -15 0 -20 63 -20 80 0 9 11 17 12 31 4 14 -7 19 -21 19 -53 0 -29
7 -52 21 -70 11 -14 18 -26 15 -26 -3 0 -61 22 -128 49 -246 97 -423 200 -547
317 -63 59 -111 130 -111 163 0 20 55 11 125 -19 92 -39 146 -39 206 -2 24 16
53 39 64 52 11 12 37 31 59 42 l38 20 27 -26 c43 -41 160 -114 259 -161 51
-25 97 -45 101 -45 4 0 22 -7 40 -16 59 -29 258 -92 373 -118 206 -46 254 -51
503 -51 206 0 258 4 368 23 409 74 747 198 931 343 l48 39 40 -23 c22 -12 43
-28 45 -35 8 -19 83 -60 124 -67 26 -5 68 2 147 24 126 35 150 37 158 16 28
-71 -191 -245 -489 -388 -65 -31 -120 -57 -124 -57 -3 0 -40 -16 -82 -36 -274
-128 -637 -243 -861 -272 -105 -14 -179 -17 -375 -17 -180 0 -259 12 -421 60
-89 27 -133 33 -69 9 137 -51 353 -91 494 -93 401 -6 745 73 1231 284 478 207
720 375 720 499 0 38 -5 43 -92 96 -35 21 -63 44 -63 51 0 7 63 55 140 107
533 356 920 751 1030 1052 71 194 140 653 100 667 -6 2 -39 -58 -75 -133z m51
-66 c-23 -194 -66 -381 -114 -493 -80 -189 -282 -433 -553 -666 -166 -143
-239 -199 -466 -352 -189 -127 -280 -200 -304 -242 -11 -19 -12 -19 -53 9 -22
16 -41 32 -41 36 0 4 -33 24 -72 45 -147 76 -160 97 -109 176 56 86 123 145
301 261 290 189 442 290 458 303 9 7 63 50 120 93 352 272 489 480 485 735 -1
48 0 87 1 87 5 0 96 -136 116 -173 10 -18 25 -33 34 -35 24 -5 47 27 128 185
40 78 74 140 77 137 2 -2 -1 -50 -8 -106z m-5525 -65 c0 -106 4 -140 23 -196
49 -143 124 -240 320 -407 29 -25 65 -57 79 -71 23 -23 169 -154 292 -263 122
-108 373 -296 394 -296 8 0 145 -97 175 -124 37 -33 81 -107 81 -137 0 -33 -8
-40 -98 -74 -47 -19 -93 -46 -130 -78 l-56 -50 -8 29 c-10 41 -81 107 -158
146 -67 35 -275 187 -366 268 -28 25 -82 71 -120 104 -100 84 -266 239 -351
327 -215 222 -349 476 -386 732 -12 85 -11 207 2 207 4 0 16 -19 27 -41 79
-172 105 -219 119 -219 8 0 15 8 15 18 0 22 130 252 143 252 1 0 2 -57 3 -127z
m1005 -1615 c28 -28 39 -46 39 -68 0 -45 -33 -48 -138 -12 -48 17 -100 33
-115 37 -25 5 -26 8 -15 24 7 10 35 37 61 60 l49 41 40 -22 c22 -13 58 -40 79
-60z m3296 -5 l56 -38 -44 -13 c-175 -52 -199 -55 -199 -27 0 13 108 115 123
115 4 0 33 -17 64 -37z m-2732 -337 c18 -13 18 -15 2 -40 -12 -18 -26 -26 -47
-26 -35 0 -34 -2 -15 44 16 39 30 44 60 22z"/>
<path d="M5579 2713 c-7 -46 -2 -81 15 -100 24 -28 31 -28 80 -2 41 22 69 19
60 -6 -4 -9 -18 -15 -35 -15 -37 0 -37 -15 1 -35 28 -14 31 -14 51 6 17 17 20
29 16 62 -8 62 -46 75 -92 33 -15 -14 -33 -22 -41 -19 -19 7 -18 20 4 33 16 9
15 11 -7 30 -23 20 -50 26 -52 13z"/>
<path d="M5492 2564 c-17 -12 -22 -24 -20 -46 4 -46 60 -86 134 -98 54 -9 60
-8 77 11 9 12 17 31 17 43 0 23 -48 75 -87 95 -31 16 -95 14 -121 -5z m126
-49 c39 -18 52 -29 52 -46 0 -20 -3 -21 -52 -15 -71 10 -108 30 -108 61 0 21
5 25 28 25 15 0 51 -11 80 -25z"/>
<path d="M5368 2380 c-24 -27 -48 -50 -54 -50 -12 0 -44 -32 -44 -43 0 -4 7
-7 16 -7 20 0 84 -38 84 -50 0 -12 -93 -18 -108 -7 -19 15 -64 -9 -60 -30 2
-10 12 -19 23 -21 11 -2 45 -29 76 -59 35 -34 63 -54 74 -51 32 6 27 25 -14
64 -23 20 -41 41 -41 45 0 5 35 9 77 11 42 2 78 8 79 13 2 6 -30 31 -71 58
-41 26 -75 51 -75 56 0 5 11 12 24 15 26 6 126 -47 152 -81 13 -17 16 -16 45
16 28 30 31 39 26 78 -7 68 -37 93 -108 93 -57 0 -59 -1 -101 -50z m140 -6
c28 -19 47 -63 33 -77 -6 -6 -29 2 -63 22 -78 45 -81 48 -74 60 11 16 78 13
104 -5z"/>
<path d="M5095 2116 c-28 -28 -26 -46 5 -46 17 0 33 -26 83 -137 12 -27 39
-30 58 -7 11 13 10 17 -4 25 -25 15 -21 53 8 69 20 11 28 10 48 -3 21 -13 28
-14 42 -3 24 17 13 32 -33 46 -20 7 -59 25 -87 40 -78 43 -91 45 -120 16z
m125 -61 c0 -23 -29 -25 -50 -3 -10 12 -17 25 -14 29 7 12 64 -11 64 -26z"/>
<path d="M4926 1991 c-20 -22 -14 -41 13 -41 18 0 53 -34 89 -87 27 -38 27
-43 3 -43 -10 0 -21 -9 -24 -20 -5 -19 -37 -29 -37 -11 0 5 -25 26 -56 47 -31
22 -60 49 -65 61 -10 28 -20 29 -50 4 l-23 -18 44 -28 c48 -31 124 -102 132
-124 6 -21 61 3 93 40 13 16 27 29 32 29 20 1 95 81 89 95 -7 19 -46 20 -46 0
0 -13 -38 -42 -44 -33 -2 2 -24 36 -51 76 -50 76 -69 86 -99 53z"/>
<path d="M4709 1831 l-24 -19 27 -11 c32 -12 71 -53 105 -108 15 -26 32 -43
43 -43 45 0 33 34 -42 121 -26 30 -48 61 -48 67 0 18 -35 14 -61 -7z"/>
<path d="M4625 1774 c-54 -28 -95 -65 -95 -85 0 -30 27 -35 49 -8 18 22 18 22
34 3 9 -10 32 -39 51 -62 20 -24 36 -48 36 -53 0 -10 31 -12 54 -3 20 8 21 34
2 34 -16 0 -106 108 -106 128 0 7 11 17 25 22 31 12 33 40 3 40 -13 0 -36 -7
-53 -16z"/>
<path d="M4435 1636 c-13 -13 -34 -26 -47 -29 -32 -9 -89 -57 -122 -106 -24
-34 -26 -43 -16 -56 7 -8 21 -15 32 -15 15 0 19 5 15 20 -12 45 43 37 101 -16
22 -20 43 -47 46 -60 8 -31 14 -30 54 6 40 37 41 50 3 50 -21 0 -43 14 -80 48
-28 26 -51 51 -51 56 0 4 14 12 30 17 19 7 30 18 30 30 0 34 37 20 108 -42 23
-20 42 -43 42 -52 0 -25 19 -30 45 -13 31 20 32 34 3 45 -22 8 -86 74 -118
120 -19 28 -45 27 -75 -3z"/>
<path d="M647 2310 c7 -27 -62 -116 -99 -129 l-28 -10 30 -49 c33 -55 61 -66
121 -53 69 16 119 67 119 122 0 14 -22 44 -59 81 -61 60 -93 75 -84 38z m88
-70 c12 -13 15 -27 11 -44 -9 -35 -61 -93 -90 -100 -29 -7 -76 8 -76 25 0 16
110 139 125 139 6 0 20 -9 30 -20z"/>
<path d="M820 2111 c0 -23 -11 -39 -47 -70 -27 -23 -55 -41 -64 -41 -23 0 -30
-11 -18 -27 17 -19 46 -16 79 9 16 12 33 19 37 15 3 -4 2 -32 -4 -63 -13 -74
-7 -102 28 -120 27 -13 31 -13 58 7 27 20 33 21 61 9 37 -16 44 -25 32 -47 -6
-11 -6 -28 -1 -42 7 -18 12 -21 23 -12 8 6 16 22 19 34 11 45 47 140 58 154
14 16 -10 47 -54 69 -24 13 -28 13 -33 -1 -4 -8 1 -26 10 -40 l16 -24 -65 -30
c-35 -17 -77 -31 -92 -33 -26 -3 -28 0 -31 35 -4 50 11 67 59 67 48 0 83 30
74 63 -12 42 -28 67 -49 73 -12 4 -32 15 -45 25 -34 27 -51 24 -51 -10z m96
-45 c39 -30 -24 -74 -73 -53 -29 13 -29 32 -1 51 28 20 49 20 74 2z m104 -200
c0 -20 -19 -31 -32 -18 -6 6 -7 15 -4 21 10 16 36 13 36 -3z"/>
<path d="M1096 1828 c-33 -30 -66 -96 -66 -130 0 -36 32 -68 68 -68 33 0 67
32 59 55 -8 20 -47 20 -47 -1 0 -29 -25 -8 -28 25 -3 25 3 38 29 61 36 34 75
48 91 32 8 -8 8 -15 -1 -26 -23 -28 -2 -37 37 -16 20 11 43 20 50 20 26 0 5
25 -27 31 -17 4 -40 14 -50 23 -26 24 -85 20 -115 -6z"/>
<path d="M1253 1710 c-91 -55 -81 -183 13 -183 50 0 76 14 109 56 36 49 41 86
15 120 -17 22 -30 27 -63 27 -24 0 -56 -8 -74 -20z m105 -39 c3 -27 -4 -40
-41 -77 -64 -63 -113 -59 -83 8 17 38 41 67 76 91 33 23 44 17 48 -22z"/>
<path d="M4296 1248 c-3 -13 -3 -39 0 -59 7 -45 -6 -55 -44 -35 -29 15 -112
12 -112 -5 0 -4 17 -17 38 -29 42 -24 97 -94 95 -122 -2 -19 15 -22 55 -12 27
8 29 40 3 49 -11 3 -27 18 -36 32 -17 25 -17 26 1 18 28 -11 49 -11 48 0 -1 6
-5 29 -9 53 -4 23 -3 42 2 42 14 0 73 -60 73 -75 0 -21 16 -26 44 -14 34 16
33 35 -3 54 -16 8 -40 29 -52 47 -31 44 -67 78 -83 78 -8 0 -16 -10 -20 -22z"/>
<path d="M1559 1257 c0 -1 -2 -12 -5 -24 -6 -33 -93 -143 -120 -153 -30 -12
-30 -21 -1 -47 71 -65 146 -55 207 29 44 60 42 108 -7 153 -30 27 -70 50 -74
42z m59 -91 c11 -52 -51 -136 -99 -136 -17 0 -29 5 -29 13 0 20 101 148 113
144 7 -2 14 -12 15 -21z"/>
<path d="M1714 1101 c-43 -26 -73 -71 -79 -117 -7 -61 32 -93 95 -79 71 16
138 155 95 198 -22 22 -73 21 -111 -2z m86 -54 c0 -38 -68 -107 -105 -107 -29
0 -30 5 -11 52 37 88 116 125 116 55z"/>
<path d="M4045 1090 c-16 -18 -16 -20 -1 -35 12 -13 16 -37 16 -111 0 -52 4
-94 9 -94 20 0 62 43 56 58 -7 18 22 52 43 52 9 0 23 -7 33 -16 19 -17 69 -13
69 5 0 5 -36 43 -81 85 -85 81 -112 91 -144 56z m86 -70 c24 -20 24 -20 4 -35
-27 -21 -39 -14 -43 23 -4 37 6 40 39 12z"/>
<path d="M3948 1056 c-23 -17 -22 -24 1 -44 25 -23 55 -105 46 -131 -19 -61
-108 13 -110 93 -1 37 -4 41 -26 38 -13 -1 -33 -11 -44 -22 -19 -20 -19 -20 2
-35 11 -8 35 -40 52 -71 38 -67 87 -95 129 -73 13 8 28 25 34 38 9 26 7 38
-38 209 -4 16 -24 15 -46 -2z"/>
<path d="M3683 965 c-34 -14 -38 -25 -33 -100 2 -50 9 -63 52 -95 29 -21 53
-30 79 -30 21 0 49 -4 62 -9 18 -7 30 -6 43 4 17 13 18 15 3 27 -28 22 -49 61
-49 89 0 38 -26 95 -52 113 -27 20 -63 20 -105 1z m67 -35 c19 -10 40 -59 40
-95 0 -24 -41 -52 -60 -40 -28 17 -52 119 -33 138 9 10 31 9 53 -3z"/>
<path d="M3531 906 c-9 -11 -7 -19 14 -40 23 -23 34 -56 19 -56 -3 0 -23 13
-44 30 -45 36 -86 52 -111 45 -19 -6 -27 -35 -9 -35 13 0 27 -60 36 -147 6
-67 8 -73 29 -73 38 0 48 23 30 65 -17 42 -20 95 -6 95 6 0 40 -22 76 -50 36
-27 70 -50 76 -50 18 0 9 56 -21 125 -16 39 -30 78 -30 88 0 21 -42 24 -59 3z"/>
<path d="M2300 884 c0 -9 -14 -57 -30 -107 -31 -91 -30 -112 6 -105 12 2 21
20 31 63 16 73 32 115 44 115 17 0 9 29 -10 40 -28 14 -41 12 -41 -6z"/>
<path d="M2382 861 c-9 -5 -11 -19 -7 -42 4 -23 -1 -52 -15 -89 -36 -91 -36
-86 14 -99 63 -16 105 -14 113 5 7 19 -11 41 -21 25 -10 -16 -66 -13 -72 3 -3
8 0 24 6 36 9 16 19 20 43 18 28 -3 32 0 35 25 3 24 0 27 -27 27 -32 0 -36 6
-25 34 9 23 50 20 68 -5 9 -13 21 -19 30 -16 21 8 21 -29 1 -103 -19 -70 -19
-80 1 -80 16 0 44 56 44 90 0 41 20 18 37 -40 17 -61 39 -79 47 -37 3 12 10
50 17 84 6 36 20 70 30 79 11 9 19 23 19 31 0 24 -34 14 -61 -18 l-26 -32 -21
37 c-16 26 -28 36 -47 36 -14 0 -25 4 -25 9 0 4 -26 11 -58 14 -32 4 -65 9
-73 12 -8 2 -20 1 -27 -4z"/>
<path d="M3292 843 c2 -10 12 -19 23 -21 34 -6 40 -20 37 -84 -4 -73 -15 -98
-43 -98 -25 0 -46 48 -57 130 -5 33 -12 63 -16 67 -3 4 -21 2 -39 -4 -17 -7
-43 -10 -57 -7 -14 3 -34 -1 -45 -10 -18 -14 -19 -16 -3 -28 19 -15 33 -73 20
-82 -8 -5 -25 23 -62 104 -8 18 -39 24 -58 11 -11 -7 -11 -17 1 -57 16 -54 8
-143 -14 -170 -17 -21 3 -38 35 -30 23 6 26 12 27 54 1 26 1 50 0 55 -3 21 20
1 50 -43 52 -77 64 -66 64 57 0 56 3 104 7 108 19 20 36 -7 42 -67 10 -84 31
-109 96 -116 46 -4 50 -3 69 28 16 27 19 46 15 104 -6 113 -8 116 -55 116 -33
0 -40 -3 -37 -17z"/>
<path d="M2775 812 c-29 -6 -55 -32 -55 -55 0 -11 13 -35 30 -53 26 -30 28
-38 19 -61 -22 -57 -49 -70 -49 -24 0 37 -19 50 -37 26 -27 -38 -5 -84 39 -85
68 -1 127 98 87 146 -9 11 -8 14 5 14 16 0 36 36 36 65 0 16 -47 33 -75 27z
m25 -62 c0 -11 -4 -20 -10 -20 -5 0 -10 2 -10 4 0 2 -3 11 -6 20 -4 11 -1 16
10 16 9 0 16 -8 16 -20z"/>
</g>
</svg>
